/* XPM */
static char*mini[]={
"16 16 7 1",
". c #000000",
"c c #0000c0",
"# c #303030",
"a c #0000ff",
"e c #c00000",
"b c #585858",
"d c #ff0000",
"................",
".##.aaaaaaaaa.#b",
"....acccccccc.#b",
".aaaac.....ac.#b",
".acccc.###.ac.#b",
".ac........ac.#b",
".ac.ddddd..ac.#b",
".ac.deeee..ac.#b",
".ac.de.de......b",
".ac....deddddd.b",
".ac.##.deeeeee.b",
"............de.b",
".###.dddddddde.b",
".###.eeeeeeeee.b",
".###...........b",
".bbbbbbbbbbbbbbb"};
